<svg width='px' height='77px' xmlns="http://www.w3.org/2000/svg" viewBox="0 0 426.3 133.02"><defs><style>.cls-1{font-size:85px;font-family:Helvetica-Bold, Helvetica;font-weight:700;}.cls-2,.cls-3{fill:none;stroke:#1d1d1b;stroke-miterlimit:10;}.cls-2{stroke-width:11px;}.cls-3{stroke-width:8px;}</style></defs><g id="Layer_2" data-name="Layer 2"><g id="Layer_1-2" data-name="Layer 1"><text class="cls-1" transform="translate(0 92.14)"><tspan xml:space="preserve">tune      ut.</tspan></text><circle class="cls-2" cx="253.8" cy="65.5" r="60"/><path class="cls-3" d="M192.3,72.65c16.4-1.55,25.59-1,31.1,0a7.26,7.26,0,0,0,4.61-.3c3.4-1.61,4-6.15,6.78-19.09,1.88-8.66,2.48-10.49,3.08-10.47,1.24,0,1.94,8.07,2.15,10.47,1.19,13.63,4.74,54.14,6.47,54.18,2.08.06,4.28-59.09,7.69-59.11,2.64,0,3.62,35.32,7.08,35.41,4.53.11,9.14-59.88,11.39-59.73s.17,65.6,4,65.88c2.62.2,4.55-30.15,12.93-31.09,3.14-.35,3.82,7.2,10.47,10.78,5.51,3,12.06,1.78,17.25,0"/></g></g></svg>