<?xml version="1.0" encoding="utf-8"?>
<!-- Svg Vector Icons : http://www.onlinewebfonts.com/icon -->
<!DOCTYPE svg PUBLIC "-//W3C//DTD SVG 1.1//EN" "http://www.w3.org/Graphics/SVG/1.1/DTD/svg11.dtd">
<svg height='50' width='50' version="1.1" xmlns="http://www.w3.org/2000/svg" xmlns:xlink="http://www.w3.org/1999/xlink" x="0px" y="0px" viewBox="0 0 1000 1000" enable-background="new 0 0 1000 1000" xml:space="preserve">
<metadata> Svg Vector Icons : http://www.onlinewebfonts.com/icon </metadata>
<g><path d="M500,10C229.4,10,10,229.4,10,500s219.4,490,490,490s490-219.4,490-490S770.6,10,500,10z M651.3,695.8c-7.6,0-12.8-2.9-18.3-6.2c-51.7-31.3-115.8-47.7-185.2-47.7c-35.4,0-73.7,4.2-113.6,12.4l-4.8,1.2c-5.1,1.2-10.3,2.6-14.2,2.6c-16.1,0-28.7-12.5-28.7-28.5c0-16.2,9.2-27.7,24.4-30.6c47.7-10.9,92.6-16.1,137.1-16.1c80.6,0,152.8,18.6,214.4,55.6c10.6,6.2,17.3,13.3,17.3,29C679.6,683.1,667,695.8,651.3,695.8z M691,584.4c-9,0-14.9-3.4-20.2-6.5c-93.2-55.3-232.1-73.7-346.3-43.2c-1.9,0.6-3.6,1.1-5.2,1.6c-4.3,1.4-8.4,2.7-14,2.7c-18.8,0-34-15.4-34-34.3c0-18.2,9.5-31,26.7-35.8c44-12,85.4-20.1,145-20.1c96.3,0,189.6,24.1,262.7,67.9c13.3,7.6,19.3,18,19.3,33.6C725,569.2,709.7,584.4,691,584.4z M736.1,457.4c-8.5,0-13.7-2-21.5-6.3c-63.2-38-161.9-60.5-264.1-60.5c-53.2,0-101.6,5.9-143.8,17.3c-1.4,0.4-2.8,0.8-4.2,1.2c-4.5,1.3-10.1,3-15.9,3c-22.4,0-40-17.8-40-40.4c0-19.7,11.1-34.8,29.6-40.2c50.9-15.1,109.6-22.6,174.3-22.6c116.4,0,227.3,25.8,304.1,71c14.5,8.2,21.6,20.6,21.6,37.9C776.1,439.9,758.5,457.4,736.1,457.4z"/></g>
</svg>