<svg width='16px' height='16px' xmlns="http://www.w3.org/2000/svg" viewBox="0 0 131 131"><defs><style>.cls-1,.cls-2{fill:none;stroke:#1d1d1b;stroke-miterlimit:10;}.cls-1{stroke-width:11px;}.cls-2{stroke-width:8px;}</style></defs><g id="Layer_2" data-name="Layer 2"><g id="Layer_1-2" data-name="Layer 1"><circle class="cls-1" cx="65.5" cy="65.5" r="60"/><path class="cls-2" d="M4,72.65c16.39-1.55,25.59-1,31.09,0a7.29,7.29,0,0,0,4.62-.3c3.39-1.61,3.95-6.15,6.77-19.09C48.37,44.6,49,42.77,49.56,42.79c1.25,0,1.95,8.07,2.16,10.47,1.19,13.63,4.74,54.14,6.46,54.18,2.09.06,4.29-59.09,7.7-59.11,2.64,0,3.61,35.32,7.08,35.41,4.52.11,9.13-59.88,11.39-59.73s.17,65.6,4,65.88c2.61.2,4.55-30.15,12.93-31.09,3.14-.35,3.81,7.2,10.47,10.78,5.51,3,12.06,1.78,17.25,0"/></g></g></svg>